Coordinates
version=1
nRows=4
nColumns=63
inDegrees=yes

Units are S.I. units (second, meters, Newtons, ...)
If the header above contains a line with 'inDegrees', this indicates whether rotational values are in degrees (yes) or radians (no).

endheader
time	pelvis_tilt	pelvis_list	pelvis_rotation	pelvis_tx	pelvis_ty	pelvis_tz	hip_flexion_r	hip_adduction_r	hip_rotation_r	knee_angle_r	knee_angle_r_beta	ankle_angle_r	subtalar_angle_r	mtp_angle_r	hip_flexion_l	hip_adduction_l	hip_rotation_l	knee_angle_l	knee_angle_l_beta	ankle_angle_l	subtalar_angle_l	mtp_angle_l	L5_S1_Flex_Ext	L5_S1_Lat_Bending	L5_S1_axial_rotation	L4_L5_Flex_Ext	L4_L5_Lat_Bending	L4_L5_axial_rotation	L3_L4_Flex_Ext	L3_L4_Lat_Bending	L3_L4_axial_rotation	L2_L3_Flex_Ext	L2_L3_Lat_Bending	L2_L3_axial_rotation	L1_L2_Flex_Ext	L1_L2_Lat_Bending	L1_L2_axial_rotation	L1_T12_Flex_Ext	L1_T12_Lat_Bending	L1_T12_axial_rotation	Abs_r3	Abs_r2	Abs_r1	Abs_t1	Abs_t2	neck_flexion	neck_bending	neck_rotation	arm_flex_r	arm_add_r	arm_rot_r	elbow_flex_r	pro_sup_r	wrist_flex_r	wrist_dev_r	arm_flex_l	arm_add_l	arm_rot_l	elbow_flex_l	pro_sup_l	wrist_flex_l	wrist_dev_l
      4.08474576	     -0.46954479	    -15.13098711	     79.80783197	      0.20346033	      0.66411840	      0.57990016	     18.10621885	      4.99900262	      1.94477534	     11.93519340	      0.20830842	     35.39714496	     -3.75094502	      0.00000000	      9.10988718	     -3.88722470	     -4.76762307	      1.97047155	      0.03439122	     31.03854391	      2.65197498	      0.00000000	      0.45046152	      1.21283338	      0.25284061	      0.83655209	      1.61306840	      0.26864315	      0.74006323	      2.94888309	      0.26864315	      0.51483247	      2.94888309	      0.22123553	      0.41829857	      2.47320984	      0.20543300	      0.25739371	      1.87867891	      0.18963046	      3.21760160	     13.71981380	      1.40622362	      0.00000000	      0.00000000	     28.42993818	     -0.73019620	      4.98442566	      8.50587393	    -17.14690150	     85.61680312	     18.98314955	     34.51284880	    -12.89682154	    -16.15211547	     14.65190249	      0.94808357	    152.76455574	      0.43373237	      4.59215728	     -5.37051523	     -7.98608203
      4.10169492	     -0.64950359	    -14.78236315	     79.79175700	      0.20446678	      0.66367664	      0.58011594	     17.99121530	      4.85569304	      2.43710782	     12.36276131	      0.21577089	     35.52532240	     -4.16602808	      0.00000000	      8.65136064	     -3.71747616	     -5.37050444	      1.92054045	      0.03351975	     31.27128756	      3.28586058	      0.00000000	      0.45698422	      1.17409416	      0.14246684	      0.84866539	      1.56154523	      0.15137102	      0.75077937	      2.85469254	      0.15137102	      0.52228726	      2.85469254	      0.12465849	      0.42435555	      2.39421281	      0.11575431	      0.26112078	      1.81867185	      0.10685013	      3.26419257	     13.28158794	      0.79235784	      0.00000000	      0.00000000	     28.43985046	     -0.40668510	      5.26960237	      8.57042406	    -17.17803747	     85.36042367	     19.11206872	     35.42199820	    -13.01721208	    -15.54512523	     15.14185065	      0.07102452	    149.07470983	      0.44686320	      2.67414847	     -2.60402169	     -8.53606453
      4.11864407	     -0.46935263	    -14.67179409	     79.99881851	      0.20481180	      0.66304097	      0.57973082	     17.88044857	      5.14710430	      3.91643959	     12.49426331	      0.21806603	     35.21216972	     -6.11198925	      0.00000000	      8.60210648	     -4.01444828	     -9.27281126	      2.34439689	      0.04091744	     32.33351642	      8.59704742	      0.00000000	      0.49069148	      1.18918391	      0.07577002	      0.91126314	      1.58161459	      0.08050564	      0.80615703	      2.89138175	      0.08050564	      0.56081129	      2.89138175	      0.06629876	      0.45565610	      2.42498382	      0.06156314	      0.28038111	      1.84204587	      0.05682751	      3.50496014	     13.45228618	      0.42141010	      0.00000000	      0.00000000	     28.44827390	     -0.07205611	      6.16512970	      4.60643317	    -18.25392265	     58.60115030	     23.12489090	     63.77696595	    -13.11215624	     -8.36803163	     15.58001867	     -0.48521825	    141.71285205	      0.49982111	      2.72166990	     -0.32074549	     -8.93427757
      4.13559322	     -0.45153109	    -14.29424093	     80.42857312	      0.20501261	      0.66338309	      0.57979708	     17.59432021	      5.07059460	      4.18479576	     12.70112772	      0.22167650	     35.12778998	     -6.64976623	      0.00000000	      8.30001221	     -3.97106328	     -9.15955516	      2.53466557	      0.04423826	     32.28794153	      8.86196719	      0.00000000	      0.47753775	      1.16578284	     -0.06011561	      0.88683535	      1.55049118	     -0.06387283	      0.78454677	      2.83448440	     -0.06387283	      0.54577789	      2.83448440	     -0.05260116	      0.44344155	      2.37726437	     -0.04884393	      0.27286507	      1.80579762	     -0.04508671	      3.41100438	     13.18756864	     -0.33434498	      0.00000000	      0.00000000	     28.44857093	      0.39579792	      6.66149491	      4.93183072	    -18.66674264	     58.49844445	     23.86443827	     64.79608835	    -12.51794809	     -6.60142731	     16.25119707	     -1.25465719	    134.62481058	      0.57677910	      2.09220107	      0.60418007	     -8.93266179
